<?xml version="1.0" encoding="utf-8"?>
<!-- Generator: Adobe Illustrator 21.0.0, SVG Export Plug-In . SVG Version: 6.00 Build 0)  -->
<svg version="1.1" id="图层_1" xmlns="http://www.w3.org/2000/svg" xmlns:xlink="http://www.w3.org/1999/xlink" x="0px" y="0px"
	 viewBox="0 0 1000 1000" style="enable-background:new 0 0 1000 1000;" xml:space="preserve">
<style type="text/css">
	.st0{fill:#FFFFFF;}
	.st1{fill:#D3D1D2;}
	.st2{fill:#565656;}
	.st3{fill:#6B6B83;}
	.st4{fill:#7F7FD5;}
	.st5{fill:#F5AF19;}
	.st6{fill:#4286F4;}
	.st7{fill:#FBD786;}
	.st8{fill:#2193B0;}
	.st9{fill:#F7797D;}
	.st10{fill:#C471ED;}
	.st11{fill:#EC2F4B;}
	.st12{fill:#2C3E50;}
	.st13{fill:#F12711;}
	.st14{fill:#2EBF91;}
</style>
<g>
	<path class="st0" d="M839.9,829.4c-15,31.7-42.2,67.8-75.8,77.6c-97.9,28.7-103.4-0.4-243.4-0.4c-79.2,0-130.4,6.7-161.5,13.2
		c-61.4,12.9-122.7-23.6-139.3-84.1c-20.8-75.8,4-171.7,13.7-204.2c2.2-7.3,1.2-15.3-2.8-21.8c-35.8-59.3-52.3-82.4-59.2-112.3
		C161,450.9,206.4,411.2,251,428c0.2,0.1,0.3,0.1,0.5,0.2c0.4,0.2,0.8,0.3,1.2,0.4c13.6,4.5,28.2-22.9,32.8-36.5l29.8-89.6
		c6.8-24.8,13.6-50.2,25.1-73.3c15.3-30.8,44.5-43.7,71.6-62.7c28.3-19.8,55.6-41.1,81.7-63.8c10.7-9.3,20.2-15.1,28.8-18.2
		c49.3-17.7,69.8,53.4,122.9,69c65.8,19.4,111.3,92.3,142.6,179.1c8.5,23.7,34,36.5,58.2,29.3c0.2-0.1,0.4-0.1,0.6-0.2
		c26.2-7.6,50.3,5.1,63.8,27.8c12.9,21.6,7.5,48.5,1.1,71.3c-13.4,47.3-51.7,99.9-64,115.9c-2.4,3.2-3.5,7.2-3,11.2
		c5.3,42.3,11,84.6,12.4,127.3C858.3,753.9,856.7,793.9,839.9,829.4z"/>
</g>
<g>
	<g>
		<path class="st1" d="M883.6,461c6.4-22.8,11.8-49.7-1.1-71.3c-13.5-22.7-37.7-35.5-63.8-27.8c-1.8,0.5-3.5,1.1-5.3,1.7
			c11.8,4.9,22,14.1,29.1,26.2c12.9,21.6,7.5,48.5,1.1,71.3c-13.4,47.3-51.7,99.9-64,115.9c-2.5,3.2-3.5,7.2-3,11.2
			c5.3,42.3,11,84.6,12.4,127.3c1.3,38.5-0.2,78.5-17,113.9c-15,31.7-42.2,67.8-75.8,77.6c-22.4,6.6-40,10.1-55.4,11.7
			c26.8,2.4,52.1,1.1,95.4-11.7c33.6-9.9,60.8-45.9,75.8-77.6c16.8-35.4,18.3-75.4,17-113.9c-1.5-42.6-7.1-85-12.4-127.3
			c-0.5-4,0.6-8,3-11.2C831.8,560.9,870.2,508.3,883.6,461z"/>
	</g>
</g>
<g>
	<circle class="st1" cx="391" cy="488.6" r="16.7"/>
</g>
<g>
	<circle class="st1" cx="662.2" cy="488.6" r="16.7"/>
</g>
<g>
	<path class="st2" d="M306.4,929.9c-55.8,0-106.6-36.9-121.8-92.2c-20.9-76.3,2.6-171.1,13.7-208.3c1.6-5.4,0.9-11.1-2-15.9
		c-31.4-51.9-51.6-97.1-60.1-134.1c-5.7-24.5,2.3-49.1,21.3-65.7c19-16.6,44.4-21.2,68-12.3l0.4,0.1c0.1,0.1,0.3,0.1,0.4,0.2
		l0.6,0.2c9.5,3.2,20-2.3,23.3-12.2c1.3-3.9,5.6-6,9.5-4.7c3.9,1.3,6,5.6,4.7,9.5c-4.8,14.2-18,23.3-32,23.3c-3.3,0-6.7-0.5-9.9-1.6
		c-0.5-0.1-1.3-0.3-2.1-0.7c-0.1,0-0.3-0.1-0.4-0.2c-18.3-6.8-37.9-3.2-52.6,9.7c-14.7,12.9-20.9,32-16.5,51
		c8.2,35.5,27.8,79.1,58.3,129.7c5.1,8.3,6.4,18.5,3.6,27.9c-10.7,36-33.6,127.5-13.7,200.1c15.4,56.3,72.8,90.9,130.5,78.7
		c29.2-6.1,81.1-13.4,163-13.4c56.9,0,91.6,4.7,119.5,8.5c40.4,5.5,64.8,8.8,121.8-7.8c31.1-9.1,57.1-44,71.1-73.6
		c1.8-3.7,6.2-5.3,10-3.6c3.7,1.8,5.3,6.2,3.6,10c-7.5,15.8-35.4,68.4-80.5,81.6c-60,17.6-87.1,13.9-128,8.3
		c-27.5-3.7-61.6-8.4-117.5-8.4c-80.6,0-131.5,7.1-160,13C323.9,929,315.1,929.9,306.4,929.9z"/>
</g>
<g>
	<path class="st2" d="M829.1,722.7c-4,0-7.4-3.2-7.5-7.3c-1.3-38.8-6.2-78-11-115.9l-1.3-10.7c-0.8-6.1,0.8-12,4.5-16.8
		c11.3-14.7,49.5-66.6,62.7-113.3c6.4-22.9,10.8-46.7-0.3-65.4c-12.7-21.3-33.8-30.7-55.3-24.4c-10.1,3-20.4,7.5-30.4,13.4
		c-4.6,2.7-10,3.1-15,1.2c-5-1.9-8.8-6-10.4-11.1c-17.1-56-37.3-102-60.2-136.6c-26.4-40-56.6-65.3-89.8-75
		c-24.6-7.2-42.5-25.3-58.3-41.2c-22.5-22.6-37.4-36.1-59.9-28c-8,2.9-16.9,8.5-26.4,16.8c-26.1,22.7-53.8,44.3-82.3,64.3
		c-6,4.2-12.1,8.1-18.1,11.9c-20.6,13.2-40.1,25.7-51.1,48c-1.8,3.7-6.3,5.2-10.1,3.4c-3.7-1.8-5.2-6.3-3.4-10.1
		c12.9-26,35-40.2,56.5-53.9c5.8-3.7,11.8-7.6,17.5-11.6c28.1-19.7,55.4-41,81.1-63.3c11.1-9.6,21.3-16,31.2-19.6
		c32.7-11.7,54.5,10.2,75.6,31.5c15.3,15.3,31,31.2,51.9,37.4c67.4,19.8,121.3,94.4,160.1,221.6c0.3,1,1,1.4,1.5,1.6
		c0.5,0.2,1.2,0.3,2-0.2c11-6.5,22.4-11.4,33.7-14.8c27.9-8.1,56.3,4.1,72.4,31.2c14.1,23.6,8.9,52.3,1.9,77.2
		c-14,49.3-53.5,103.1-65.3,118.4c-1.2,1.6-1.8,3.6-1.5,5.7l1.3,10.7c4.8,38.3,9.8,77.8,11.1,117.3c0.1,4.1-3.1,7.6-7.3,7.7
		C829.3,722.7,829.2,722.7,829.1,722.7z"/>
</g>
<g>
	<path class="st1" d="M268.6,845.3c-1.8,0-3.7-0.7-5.1-2.1c-4.5-4.3-10.5-15-17.5-60.9c-3.8-24.5-6-47.9-6.1-48.1
		c-0.4-4.1,2.6-7.8,6.7-8.2c4.1-0.4,7.8,2.6,8.2,6.7c0,0.2,2.2,23.2,5.9,47.2c6.9,45.3,12.5,51.8,13.1,52.4
		c2.9,2.9,3.1,7.6,0.2,10.6C272.5,844.5,270.5,845.3,268.6,845.3z"/>
</g>
<g>
	
		<ellipse transform="matrix(0.9797 -0.2003 0.2003 0.9797 -137.8915 63.8796)" class="st1" cx="246.7" cy="713.4" rx="7.8" ry="7.8"/>
</g>
<g>
	
		<ellipse transform="matrix(0.8634 -0.5046 0.5046 0.8634 -20.4381 359.5291)" class="st1" cx="653.6" cy="217.5" rx="7.8" ry="7.8"/>
</g>
<g>
	<path class="st1" d="M637.1,207.7c-2,0-4.1-0.8-5.6-2.5c-28.1-31.1-72.7-31.8-73.2-31.8c-4.1,0-7.5-3.4-7.4-7.6
		c0-4.1,3.4-7.4,7.5-7.4c0,0,0,0,0.1,0c2.1,0,51.8,0.8,84.2,36.8c2.8,3.1,2.5,7.8-0.5,10.6C640.7,207.1,638.9,207.7,637.1,207.7z"/>
</g>
<g>
	<circle class="st3" cx="407.7" cy="865.1" r="35.6"/>
</g>
<g>
	<circle class="st4" cx="358.1" cy="886.8" r="21.7"/>
</g>
<g>
	<circle class="st5" cx="518.7" cy="729.9" r="21.7"/>
</g>
<g>
	<circle class="st6" cx="657.1" cy="891.8" r="21.7"/>
</g>
<g>
	<circle class="st7" cx="472.1" cy="858.9" r="35.6"/>
</g>
<g>
	<circle class="st8" cx="454.7" cy="809.6" r="35.6"/>
</g>
<g>
	<circle class="st9" cx="535.6" cy="865.1" r="35.6"/>
</g>
<g>
	<circle class="st10" cx="606.9" cy="873.4" r="35.6"/>
</g>
<g>
	<circle class="st11" cx="579.8" cy="816" r="35.6"/>
</g>
<g>
	<circle class="st12" cx="516.2" cy="802.1" r="35.6"/>
</g>
<g>
	<circle class="st13" cx="484.2" cy="755.1" r="27.8"/>
</g>
<g>
	<circle class="st14" cx="557.5" cy="757.8" r="27.8"/>
</g>
<g>
	<path class="st2" d="M269.3,372.3c-1.8,0-3.6-0.7-5.1-2c-3-2.8-3.2-7.4-0.5-10.5c4.7-6.5,20.1-60.4,32.3-108.9c1-4,5.1-6.5,9.1-5.4
		c4,1,6.5,5.1,5.4,9.1c-0.1,0.3-6.6,26.2-14,52.9c-15.5,55.6-19.7,60.1-21.7,62.3C273.3,371.5,271.3,372.3,269.3,372.3z
		 M263.8,359.7C263.8,359.7,263.7,359.8,263.8,359.7C263.7,359.8,263.8,359.7,263.8,359.7z"/>
</g>
<g>
	<path class="st2" d="M819.7,817c-0.9,0-1.9-0.2-2.8-0.5c-3.8-1.5-5.7-5.9-4.2-9.8c8.9-22,9.1-72.1,9.1-72.6c0-4.1,3.4-7.5,7.5-7.5
		c0,0,0,0,0,0c4.1,0,7.5,3.4,7.5,7.5c0,2.2-0.2,53.5-10.1,78.2C825.5,815.2,822.7,817,819.7,817z"/>
</g>
<path class="st2" d="M562.1,465.1c-1.5-2.2-1.6-3.3-1.6-3.5c0.1-0.4,1.2-1.3,2.1-1.6l-0.1,0l-5.1-14.1c-0.8,0.3-7.3,2.8-10.3,9
	c-22.7,8.2-34.8,4.2-38.2,2.7c0-0.2-0.1-0.3-0.1-0.5c-2.5-7.9-10.3-10.9-11.2-11.2l-5.1,14.1l-0.1,0c0.9,0.4,2,1.2,2.1,1.6
	c0.1,0.2,0,1.4-1.6,3.5c-2.4,3.4-1.6,8.1,1.8,10.5c1.3,0.9,2.8,1.4,4.3,1.4c2.4,0,4.7-1.1,6.1-3.2c0.3-0.4,0.6-0.8,0.8-1.2
	c3.7,1.3,9,2.4,16,2.4c7,0,15.6-1.2,26-4.5c0.6,1.1,1.2,2.1,2,3.3c1.5,2.1,3.8,3.2,6.1,3.2c1.5,0,3-0.4,4.3-1.4
	C563.7,473.1,564.5,468.4,562.1,465.1z"/>
<g>
	<circle class="st2" cx="468" cy="411.6" r="17.5"/>
</g>
<g>
	<circle class="st2" cx="583.9" cy="411.6" r="17.5"/>
</g>
</svg>
